<svg width="101" height="101" viewBox="0 0 101 101" fill="none" xmlns="http://www.w3.org/2000/svg">
<path d="M0.5625 50.4563C0.5625 22.8602 22.957 0.457764 50.5433 0.457764C78.1296 0.457764 100.524 22.8602 100.524 50.4563H50.5433H0.5625Z" fill="#E79E00"/>
<path d="M50.8533 100.455C23.2669 100.455 0.872437 78.0524 0.872437 50.4563C0.872437 22.8602 23.2669 0.457764 50.8533 0.457764V50.4563V100.455Z" fill="#EE3E2F"/>
<path d="M16.4479 50.4562C16.4479 31.4645 31.8683 16.0386 50.8533 16.0386C69.8382 16.0386 85.2587 31.4645 85.2587 50.4562H50.8533H16.4479Z" fill="url(#paint0_linear_306_88)"/>
<path d="M85.3362 50.4563C85.3362 69.448 69.9158 84.8739 50.9308 84.8739C31.9458 84.8739 16.5254 69.448 16.5254 50.4563H50.9308H85.3362Z" fill="url(#paint1_linear_306_88)"/>
<defs>
<linearGradient id="paint0_linear_306_88" x1="53.4788" y1="33.1962" x2="112.303" y2="33.1962" gradientUnits="userSpaceOnUse">
<stop stop-opacity="0"/>
<stop offset="0.6018" stop-color="#231F20" stop-opacity="0.6018"/>
<stop offset="1"/>
</linearGradient>
<linearGradient id="paint1_linear_306_88" x1="48.2589" y1="67.6421" x2="-10.5667" y2="67.6421" gradientUnits="userSpaceOnUse">
<stop stop-opacity="0"/>
<stop offset="0.6018" stop-color="#231F20" stop-opacity="0.6018"/>
<stop offset="1"/>
</linearGradient>
</defs>
</svg>
